<svg width="78" height="68" viewBox="0 0 78 68" fill="none" xmlns="http://www.w3.org/2000/svg">
<path d="M38.9999 23.9006V37.6001M38.9999 51.2997H39.0344M33.108 6.2973L3.92349 54.7253C3.32178 55.7611 3.0034 56.9354 3.00003 58.1314C2.99666 59.3275 3.30842 60.5036 3.90429 61.5427C4.50016 62.5818 5.35938 63.4477 6.39645 64.0542C7.43352 64.6608 8.6123 64.9869 9.81552 65H68.1845C69.3877 64.9869 70.5665 64.6608 71.6036 64.0542C72.6406 63.4477 73.4998 62.5818 74.0957 61.5427C74.6916 60.5036 75.0033 59.3275 75 58.1314C74.9966 56.9354 74.6782 55.7611 74.0765 54.7253L44.892 6.2973C44.2778 5.29074 43.4129 4.45854 42.3808 3.88098C41.3488 3.30342 40.1844 3 39 3C37.8156 3 36.6512 3.30342 35.6192 3.88098C34.5871 4.45854 33.7222 5.29074 33.108 6.2973Z" stroke="#2684FF" stroke-width="5" stroke-linecap="round" stroke-linejoin="round"/>
</svg>
